<?xml version="1.0" standalone="no"?><!DOCTYPE svg PUBLIC "-//W3C//DTD SVG 1.1//EN" "http://www.w3.org/Graphics/SVG/1.1/DTD/svg11.dtd"><svg t="1488471705853" class="icon" style="" viewBox="0 0 1024 1024" version="1.1" xmlns="http://www.w3.org/2000/svg" p-id="19097" xmlns:xlink="http://www.w3.org/1999/xlink" width="200" height="200"><defs><style type="text/css"></style></defs><path d="M430.817 187.267H227.858c-22.417 0-40.592 18.175-40.592 40.592v202.958c0 22.417 18.175 40.591 40.592 40.591h202.958c22.417 0 40.592-18.175 40.592-40.591V227.858c0.001-22.417-18.175-40.591-40.591-40.591z" fill="#d81e06" p-id="19098"></path><path d="M430.817 475.408H227.858c-24.588 0-44.592-20.003-44.592-44.591V227.858c0-24.588 20.004-44.592 44.592-44.592h202.958c24.588 0 44.592 20.004 44.592 44.592v202.958c0.001 24.589-20.003 44.592-44.591 44.592zM227.858 191.267c-20.177 0-36.592 16.415-36.592 36.592v202.958c0 20.176 16.415 36.591 36.592 36.591h202.958c20.177 0 36.592-16.415 36.592-36.591V227.858c0-20.177-16.415-36.592-36.592-36.592H227.858z" fill="#d81e06" p-id="19099"></path><path d="M430.817 552.592H227.858c-22.417 0-40.592 18.175-40.592 40.591v202.959c0 22.416 18.175 40.592 40.592 40.592h202.958c22.417 0 40.592-18.176 40.592-40.592V593.183c0.001-22.416-18.175-40.591-40.591-40.591z" fill="#d81e06" p-id="19100"></path><path d="M430.817 840.733H227.858c-24.588 0-44.592-20.004-44.592-44.592V593.183c0-24.588 20.004-44.591 44.592-44.591h202.958c24.588 0 44.592 20.003 44.592 44.591v202.959c0.001 24.587-20.003 44.591-44.591 44.591zM227.858 556.592c-20.177 0-36.592 16.415-36.592 36.591v202.959c0 20.177 16.415 36.592 36.592 36.592h202.958c20.177 0 36.592-16.415 36.592-36.592V593.183c0-20.176-16.415-36.591-36.592-36.591H227.858z" fill="#d81e06" p-id="19101"></path><path d="M796.141 552.592H593.183c-22.416 0-40.591 18.175-40.591 40.591v202.959c0 22.416 18.175 40.592 40.591 40.592h202.958c22.417 0 40.593-18.176 40.593-40.592V593.183c-0.001-22.416-18.176-40.591-40.593-40.591z" fill="#d81e06" p-id="19102"></path><path d="M796.141 840.733H593.183c-24.588 0-44.591-20.004-44.591-44.592V593.183c0-24.588 20.003-44.591 44.591-44.591h202.958c24.589 0 44.593 20.003 44.593 44.591v202.959c-0.001 24.587-20.005 44.591-44.593 44.591zM593.183 556.592c-20.176 0-36.591 16.415-36.591 36.591v202.959c0 20.177 16.415 36.592 36.591 36.592h202.958c20.178 0 36.593-16.415 36.593-36.592V593.183c0-20.176-16.415-36.591-36.593-36.591H593.183z" fill="#d81e06" p-id="19103"></path><path d="M772.461 741.344c0 17.188-13.934 31.122-31.117 31.122h-93.362c-17.184 0-31.118-13.934-31.118-31.122v-93.357c0-17.185 13.935-31.118 31.118-31.118h93.362c17.184 0 31.117 13.934 31.117 31.118v93.357z" fill="#d81e06" p-id="19104"></path><path d="M796.141 187.267H593.183c-22.416 0-40.591 18.175-40.591 40.592v202.958c0 22.417 18.175 40.591 40.591 40.591h202.958c22.417 0 40.593-18.175 40.593-40.591V227.858c-0.001-22.417-18.176-40.591-40.593-40.591z" fill="#d81e06" p-id="19105"></path><path d="M796.141 475.408H593.183c-24.588 0-44.591-20.003-44.591-44.591V227.858c0-24.588 20.003-44.592 44.591-44.592h202.958c24.589 0 44.593 20.004 44.593 44.592v202.958c-0.001 24.589-20.005 44.592-44.593 44.592zM593.183 191.267c-20.176 0-36.591 16.415-36.591 36.592v202.958c0 20.176 16.415 36.591 36.591 36.591h202.958c20.178 0 36.593-16.415 36.593-36.591V227.858c0-20.177-16.415-36.592-36.593-36.592H593.183z" fill="#d81e06" p-id="19106"></path></svg>